<?xml version="1.0" encoding="UTF-8"?>
<svg xmlns="http://www.w3.org/2000/svg" viewBox="0 0 250 250">
  <defs>
    <style>
      .cls-1 {
        fill: #fff;
      }

      .cls-2 {
        fill: #ff5722;
      }

      .cls-3 {
        fill: none;
      }
    </style>
  </defs>
  <g id="Fondo">
    <rect class="cls-2" x="0" y="0" width="250" height="250"/>
  </g>
  <g id="logo">
    <g>
      <path class="cls-3" d="m23,152.71h0"/>
      <path class="cls-1" d="m91.41,154.43c0-31.77,25.76-56.1,57.54-56.1s57.54,24.32,57.54,56.1"/>
      <path class="cls-1" d="m212.24,161.62h0c0,1.99-1.42,3.6-3.16,3.6h-120.25c-1.75,0-3.16-1.61-3.16-3.6h0c0-1.99,1.42-3.6,3.16-3.6h120.25c1.75,0,3.16,1.61,3.16,3.6Z"/>
      <circle class="cls-1" cx="148.95" cy="88.98" r="7.19"/>
      <path class="cls-1" d="m139.43,58.72c-1.7-1.55-4.47-1.21-5.96.5l-21.34,24.58c-.53.6-1.3.88-2.04.82-.48-.04-.94-.22-1.33-.53-1.01-.81-1.15-2.28-.3-3.26l21.5-24.76c.71-.82,1.01-1.83.93-2.81-.08-.9-.49-1.79-1.23-2.45-1.68-1.55-4.47-1.21-5.95.5l-21.36,24.58c-.52.61-1.3.88-2.04.82-.48-.04-.94-.22-1.33-.53-1-.81-1.14-2.28-.28-3.25l21.5-24.76c.71-.81,1.01-1.83.93-2.81-.08-.9-.51-1.79-1.23-2.45-1.68-1.55-4.47-1.21-5.96.5l-27.58,31.76c-3.64,4.2-4.06,10-1.49,14.56.81,1.43.66,3.18-.43,4.41l-1.46,1.68c2.9,2.25,5.78,4.54,8.66,6.81l1.35-1.56c1.07-1.25,2.84-1.71,4.44-1.19,5.08,1.67,10.92.26,14.58-3.95l27.74-31.93c.7-.82,1.01-1.83.93-2.81-.09-.9-.51-1.79-1.23-2.45Z"/>
      <path class="cls-1" d="m95.72,97.81c-16.17,18.34-41.71,51.23-35.81,76.86,4.92,19.13,29.82,18.61,39.76,4.03,3.36-4.65,5.3-10.47,5.91-16.78l21.9,2.97c-2.83,19.76-16.68,37.94-36.84,42.19-21.02,4.78-42.64-7.08-46.65-28.87-4.58-25.59,12.24-51.09,27.71-69.85,5.2-6.22,10.7-12.11,16.38-17.77,0,0,7.63,7.24,7.63,7.24h0Z"/>
    </g>
  </g>
</svg>