<?xml version="1.0" encoding="UTF-8"?>
<svg xmlns="http://www.w3.org/2000/svg" viewBox="0 0 250 250">
  <defs>
    <style>
      .cls-1 {
        fill: #fff;
      }

      .cls-2 {
        fill: #ff5722;
      }

      .cls-3 {
        fill: none;
      }
    </style>
  </defs>
  <g id="Fondo">
    <rect class="cls-2" x="0" y="0" width="250" height="250" rx="40" ry="40"/>
  </g>
  <g id="logo">
    <g>
      <line class="cls-3" x1="11.38" y1="148" x2="11.38" y2="148"/>
      <path class="cls-1" d="m86.99,149.9c0-35.12,28.47-62,63.59-62s63.59,26.88,63.59,62"/>
      <path class="cls-1" d="m220.53,157.85h0c0,2.2-1.57,3.97-3.5,3.97H84.13c-1.93,0-3.5-1.78-3.5-3.97h0c0-2.2,1.57-3.97,3.5-3.97h132.91c1.93,0,3.5,1.78,3.5,3.97Z"/>
      <circle class="cls-1" cx="150.58" cy="77.56" r="7.95"/>
      <path class="cls-1" d="m140.06,44.11c-1.88-1.71-4.94-1.34-6.59.55l-23.59,27.16c-.59.67-1.43.97-2.26.9-.53-.04-1.04-.24-1.47-.59-1.12-.9-1.28-2.52-.33-3.6l23.77-27.37c.79-.91,1.12-2.02,1.02-3.11-.09-1-.55-1.98-1.36-2.71-1.86-1.71-4.94-1.34-6.58.55l-23.61,27.16c-.57.67-1.43.97-2.26.9-.53-.04-1.04-.24-1.47-.59-1.1-.9-1.26-2.51-.31-3.6l23.77-27.37c.79-.89,1.12-2.02,1.02-3.11-.09-1-.56-1.98-1.36-2.71-1.86-1.71-4.94-1.34-6.59.55l-30.48,35.11c-4.03,4.65-4.48,11.05-1.65,16.09.9,1.58.73,3.51-.48,4.88l-1.61,1.86c3.21,2.49,6.39,5.02,9.57,7.53l1.49-1.72c1.19-1.39,3.14-1.89,4.91-1.31,5.62,1.84,12.07.29,16.11-4.36l30.66-35.3c.77-.91,1.12-2.02,1.02-3.11-.1-1-.56-1.98-1.36-2.71Z"/>
      <path class="cls-1" d="m91.75,87.32c-17.87,20.27-46.1,56.62-39.57,84.95,5.44,21.14,32.96,20.57,43.94,4.45,3.71-5.13,5.86-11.57,6.53-18.55l24.21,3.29c-3.12,21.84-18.44,41.93-40.71,46.63-23.23,5.29-47.13-7.83-51.56-31.91-5.07-28.28,13.53-56.47,30.63-77.2,5.75-6.87,11.83-13.38,18.11-19.64l8.44,8h0Z"/>
    </g>
  </g>
</svg>