<?xml version="1.0" encoding="UTF-8"?>
<svg xmlns="http://www.w3.org/2000/svg" viewBox="0 0 250 250">
  <defs>
    <style>
      .cls-1, .cls-2 {
        fill: #fff;
      }

      .cls-2 {
        font-family: Nunito-ExtraLight, Nunito;
        font-size: 36px;
        font-weight: 200;
        stroke: #fff;
        stroke-linejoin: bevel;
        stroke-width: 2.8px;
      }

      .cls-3 {
        fill: #ff5722;
      }

      .cls-4 {
        fill: none;
      }
    </style>
  </defs>
  <g id="Fondo">
    <rect class="cls-3" x="0" y="0" width="250" height="250"/>
  </g>
  <g id="logo">
    <g>
      <path class="cls-4" d="m.15,139.58h0"/>
      <path class="cls-1" d="m36.16,140.49c0-16.72,13.56-29.53,30.28-29.53s30.28,12.8,30.28,29.53"/>
      <path class="cls-1" d="m99.75,144.27h0c0,1.05-.75,1.89-1.67,1.89h-63.29c-.92,0-1.67-.85-1.67-1.89h0c0-1.05.75-1.89,1.67-1.89h63.29c.92,0,1.67.85,1.67,1.89Z"/>
      <circle class="cls-1" cx="66.44" cy="106.04" r="3.79"/>
      <path class="cls-1" d="m61.43,90.11c-.89-.82-2.35-.64-3.14.26l-11.23,12.94c-.28.32-.68.46-1.07.43-.25-.02-.49-.11-.7-.28-.53-.43-.61-1.2-.16-1.71l11.32-13.03c.38-.43.53-.96.49-1.48-.04-.48-.26-.94-.65-1.29-.89-.82-2.35-.64-3.13.26l-11.24,12.93c-.27.32-.68.46-1.07.43-.25-.02-.49-.12-.7-.28-.53-.43-.6-1.2-.15-1.71l11.32-13.03c.38-.42.53-.96.49-1.48-.04-.48-.27-.94-.65-1.29-.89-.82-2.35-.64-3.14.26l-14.51,16.72c-1.92,2.21-2.14,5.26-.79,7.66.43.75.35,1.67-.23,2.32l-.77.88c1.53,1.19,3.04,2.39,4.56,3.59l.71-.82c.56-.66,1.5-.9,2.34-.62,2.67.88,5.75.14,7.67-2.08l14.6-16.81c.37-.43.53-.96.49-1.48-.05-.48-.27-.94-.65-1.29Z"/>
      <path class="cls-1" d="m38.43,110.69c-8.51,9.65-21.95,26.96-18.84,40.45,2.59,10.07,15.69,9.8,20.92,2.12,1.77-2.44,2.79-5.51,3.11-8.83l11.53,1.57c-1.49,10.4-8.78,19.97-19.39,22.2-11.06,2.52-22.44-3.73-24.55-15.2-2.41-13.47,6.44-26.89,14.58-36.76,2.74-3.27,5.63-6.37,8.62-9.35,0,0,4.02,3.81,4.02,3.81h0Z"/>
    </g>
  </g>
  <g id="Palabras">
    <text class="cls-2" transform="translate(103.15 138.49)"><tspan x="0" y="0">BITEVIA</tspan></text>
  </g>
</svg>